<mxfile host="app.diagrams.net" agent="Mozilla/5.0 (Windows NT 10.0; Win64; x64) AppleWebKit/537.36 (KHTML, like Gecko) Chrome/133.0.0.0 Safari/537.36" version="26.1.0">
  <diagram name="Page-1" id="gUZ5Bhf8hpHkQqqUEIgp">
    <mxGraphModel dx="1804" dy="1692" grid="1" gridSize="10" guides="1" tooltips="1" connect="1" arrows="1" fold="1" page="1" pageScale="1" pageWidth="850" pageHeight="1100" math="0" shadow="0">
      <root>
        <mxCell id="0" />
        <mxCell id="1" parent="0" />
        <mxCell id="hv0AoRBi-UAkbsu-fc5E-55" style="edgeStyle=orthogonalEdgeStyle;rounded=0;orthogonalLoop=1;jettySize=auto;html=1;entryX=0;entryY=0.5;entryDx=0;entryDy=0;endArrow=none;startFill=0;" parent="1" source="hv0AoRBi-UAkbsu-fc5E-2" target="hv0AoRBi-UAkbsu-fc5E-5" edge="1">
          <mxGeometry relative="1" as="geometry" />
        </mxCell>
        <mxCell id="hv0AoRBi-UAkbsu-fc5E-56" style="edgeStyle=orthogonalEdgeStyle;rounded=0;orthogonalLoop=1;jettySize=auto;html=1;entryX=0;entryY=0.5;entryDx=0;entryDy=0;endArrow=none;startFill=0;" parent="1" source="hv0AoRBi-UAkbsu-fc5E-2" target="hv0AoRBi-UAkbsu-fc5E-4" edge="1">
          <mxGeometry relative="1" as="geometry" />
        </mxCell>
        <mxCell id="hv0AoRBi-UAkbsu-fc5E-57" style="edgeStyle=orthogonalEdgeStyle;rounded=0;orthogonalLoop=1;jettySize=auto;html=1;entryX=0;entryY=0.5;entryDx=0;entryDy=0;endArrow=none;startFill=0;" parent="1" source="hv0AoRBi-UAkbsu-fc5E-2" target="hv0AoRBi-UAkbsu-fc5E-6" edge="1">
          <mxGeometry relative="1" as="geometry" />
        </mxCell>
        <mxCell id="hv0AoRBi-UAkbsu-fc5E-2" value="Player" style="shape=umlActor;verticalLabelPosition=bottom;verticalAlign=top;html=1;outlineConnect=0;" parent="1" vertex="1">
          <mxGeometry x="-40" y="227.5" width="40" height="75" as="geometry" />
        </mxCell>
        <mxCell id="hv0AoRBi-UAkbsu-fc5E-22" style="edgeStyle=orthogonalEdgeStyle;rounded=0;orthogonalLoop=1;jettySize=auto;html=1;exitX=1;exitY=0.5;exitDx=0;exitDy=0;entryX=0;entryY=0.5;entryDx=0;entryDy=0;dashed=1;startArrow=openThin;startFill=0;endArrow=none;" parent="1" source="hv0AoRBi-UAkbsu-fc5E-4" target="hv0AoRBi-UAkbsu-fc5E-18" edge="1">
          <mxGeometry relative="1" as="geometry" />
        </mxCell>
        <mxCell id="hv0AoRBi-UAkbsu-fc5E-23" style="edgeStyle=orthogonalEdgeStyle;rounded=0;orthogonalLoop=1;jettySize=auto;html=1;entryX=0;entryY=0.5;entryDx=0;entryDy=0;endArrow=none;startFill=0;startArrow=openThin;dashed=1;" parent="1" source="hv0AoRBi-UAkbsu-fc5E-4" target="hv0AoRBi-UAkbsu-fc5E-19" edge="1">
          <mxGeometry relative="1" as="geometry" />
        </mxCell>
        <mxCell id="hv0AoRBi-UAkbsu-fc5E-24" style="edgeStyle=orthogonalEdgeStyle;rounded=0;orthogonalLoop=1;jettySize=auto;html=1;entryX=0;entryY=0.5;entryDx=0;entryDy=0;dashed=1;endArrow=none;startFill=0;startArrow=openThin;" parent="1" source="hv0AoRBi-UAkbsu-fc5E-4" target="hv0AoRBi-UAkbsu-fc5E-20" edge="1">
          <mxGeometry relative="1" as="geometry" />
        </mxCell>
        <mxCell id="hv0AoRBi-UAkbsu-fc5E-25" style="edgeStyle=orthogonalEdgeStyle;rounded=0;orthogonalLoop=1;jettySize=auto;html=1;entryX=0;entryY=0.5;entryDx=0;entryDy=0;dashed=1;endArrow=none;startFill=0;startArrow=openThin;" parent="1" source="hv0AoRBi-UAkbsu-fc5E-4" target="hv0AoRBi-UAkbsu-fc5E-21" edge="1">
          <mxGeometry relative="1" as="geometry" />
        </mxCell>
        <mxCell id="hv0AoRBi-UAkbsu-fc5E-4" value="&lt;font style=&quot;font-size: 14px;&quot;&gt;Login&lt;/font&gt;" style="ellipse;whiteSpace=wrap;html=1;" parent="1" vertex="1">
          <mxGeometry x="120" y="230" width="110" height="70" as="geometry" />
        </mxCell>
        <mxCell id="hv0AoRBi-UAkbsu-fc5E-7" style="edgeStyle=orthogonalEdgeStyle;rounded=0;orthogonalLoop=1;jettySize=auto;html=1;endArrow=openThin;endFill=0;dashed=1;" parent="1" source="RwDEto-1E7bVGoXRoFTX-17" edge="1">
          <mxGeometry relative="1" as="geometry">
            <mxPoint x="170" y="230" as="targetPoint" />
          </mxGeometry>
        </mxCell>
        <mxCell id="hv0AoRBi-UAkbsu-fc5E-5" value="&lt;font style=&quot;font-size: 14px;&quot;&gt;Creating A New Account&lt;/font&gt;" style="ellipse;whiteSpace=wrap;html=1;" parent="1" vertex="1">
          <mxGeometry x="117" y="-100" width="110" height="70" as="geometry" />
        </mxCell>
        <mxCell id="hv0AoRBi-UAkbsu-fc5E-6" value="&lt;font style=&quot;font-size: 14px;&quot;&gt;Forgot Password or Username&lt;/font&gt;" style="ellipse;whiteSpace=wrap;html=1;" parent="1" vertex="1">
          <mxGeometry x="117" y="690" width="120" height="80" as="geometry" />
        </mxCell>
        <mxCell id="hv0AoRBi-UAkbsu-fc5E-13" style="edgeStyle=orthogonalEdgeStyle;rounded=0;orthogonalLoop=1;jettySize=auto;html=1;endArrow=none;endFill=0;dashed=1;startArrow=openThin;startFill=0;" parent="1" edge="1">
          <mxGeometry relative="1" as="geometry">
            <mxPoint x="175" y="300" as="sourcePoint" />
            <mxPoint x="175" y="390" as="targetPoint" />
          </mxGeometry>
        </mxCell>
        <mxCell id="hv0AoRBi-UAkbsu-fc5E-40" style="edgeStyle=orthogonalEdgeStyle;rounded=0;orthogonalLoop=1;jettySize=auto;html=1;entryX=0.5;entryY=1;entryDx=0;entryDy=0;endArrow=none;startFill=0;startArrow=block;" parent="1" source="hv0AoRBi-UAkbsu-fc5E-18" target="hv0AoRBi-UAkbsu-fc5E-37" edge="1">
          <mxGeometry relative="1" as="geometry" />
        </mxCell>
        <mxCell id="hv0AoRBi-UAkbsu-fc5E-18" value="&lt;span style=&quot;font-size: 14px;&quot;&gt;Play Games&lt;/span&gt;" style="ellipse;whiteSpace=wrap;html=1;" parent="1" vertex="1">
          <mxGeometry x="490" y="85" width="110" height="70" as="geometry" />
        </mxCell>
        <mxCell id="hv0AoRBi-UAkbsu-fc5E-19" value="&lt;span style=&quot;font-size: 14px;&quot;&gt;View Your Stats&lt;/span&gt;" style="ellipse;whiteSpace=wrap;html=1;" parent="1" vertex="1">
          <mxGeometry x="490" y="195" width="110" height="70" as="geometry" />
        </mxCell>
        <mxCell id="hv0AoRBi-UAkbsu-fc5E-20" value="&lt;font&gt;View Other Users&#39; Stats by Entering their Username&lt;/font&gt;" style="ellipse;whiteSpace=wrap;html=1;" parent="1" vertex="1">
          <mxGeometry x="490" y="290" width="120" height="80" as="geometry" />
        </mxCell>
        <mxCell id="hv0AoRBi-UAkbsu-fc5E-21" value="&lt;span style=&quot;font-size: 14px;&quot;&gt;Settings&lt;/span&gt;" style="ellipse;whiteSpace=wrap;html=1;" parent="1" vertex="1">
          <mxGeometry x="490" y="550" width="110" height="70" as="geometry" />
        </mxCell>
        <mxCell id="hv0AoRBi-UAkbsu-fc5E-27" value="" style="rounded=0;whiteSpace=wrap;html=1;shadow=0;fillColor=light-dark(#FFFFFF,var(--ge-dark-color, #121212));strokeColor=light-dark(#F5F5F5,#FFFFFF);" parent="1" vertex="1">
          <mxGeometry x="380" y="110" width="90" height="20" as="geometry" />
        </mxCell>
        <mxCell id="hv0AoRBi-UAkbsu-fc5E-28" value="&amp;lt;&amp;lt;extends&amp;gt;&amp;gt;" style="text;html=1;align=center;verticalAlign=middle;resizable=0;points=[];autosize=1;strokeColor=none;fillColor=none;" parent="1" vertex="1">
          <mxGeometry x="380" y="105" width="90" height="30" as="geometry" />
        </mxCell>
        <mxCell id="hv0AoRBi-UAkbsu-fc5E-31" value="" style="rounded=0;whiteSpace=wrap;html=1;shadow=0;fillColor=light-dark(#FFFFFF,var(--ge-dark-color, #121212));strokeColor=light-dark(#F5F5F5,#FFFFFF);" parent="1" vertex="1">
          <mxGeometry x="380" y="220" width="90" height="20" as="geometry" />
        </mxCell>
        <mxCell id="hv0AoRBi-UAkbsu-fc5E-32" value="&amp;lt;&amp;lt;extends&amp;gt;&amp;gt;" style="text;html=1;align=center;verticalAlign=middle;resizable=0;points=[];autosize=1;strokeColor=none;fillColor=none;" parent="1" vertex="1">
          <mxGeometry x="380" y="215" width="90" height="30" as="geometry" />
        </mxCell>
        <mxCell id="hv0AoRBi-UAkbsu-fc5E-33" value="" style="rounded=0;whiteSpace=wrap;html=1;shadow=0;fillColor=light-dark(#FFFFFF,var(--ge-dark-color, #121212));strokeColor=light-dark(#F5F5F5,#FFFFFF);" parent="1" vertex="1">
          <mxGeometry x="380" y="315" width="90" height="20" as="geometry" />
        </mxCell>
        <mxCell id="hv0AoRBi-UAkbsu-fc5E-34" value="&amp;lt;&amp;lt;extends&amp;gt;&amp;gt;" style="text;html=1;align=center;verticalAlign=middle;resizable=0;points=[];autosize=1;strokeColor=none;fillColor=none;" parent="1" vertex="1">
          <mxGeometry x="380" y="310" width="90" height="30" as="geometry" />
        </mxCell>
        <mxCell id="hv0AoRBi-UAkbsu-fc5E-35" value="&amp;lt;&amp;lt;extends&amp;gt;&amp;gt;" style="rounded=0;whiteSpace=wrap;html=1;shadow=0;fillColor=light-dark(#FFFFFF,var(--ge-dark-color, #121212));strokeColor=light-dark(#F5F5F5,#FFFFFF);" parent="1" vertex="1">
          <mxGeometry x="380" y="572" width="90" height="20" as="geometry" />
        </mxCell>
        <mxCell id="hv0AoRBi-UAkbsu-fc5E-37" value="&lt;span style=&quot;font-size: 14px;&quot;&gt;Connect4&lt;/span&gt;" style="ellipse;whiteSpace=wrap;html=1;" parent="1" vertex="1">
          <mxGeometry x="490" y="-100" width="110" height="70" as="geometry" />
        </mxCell>
        <mxCell id="hv0AoRBi-UAkbsu-fc5E-38" value="&lt;span style=&quot;font-size: 14px;&quot;&gt;TicTacToe&lt;/span&gt;" style="ellipse;whiteSpace=wrap;html=1;" parent="1" vertex="1">
          <mxGeometry x="670" y="-50" width="110" height="70" as="geometry" />
        </mxCell>
        <mxCell id="hv0AoRBi-UAkbsu-fc5E-48" style="edgeStyle=orthogonalEdgeStyle;rounded=0;orthogonalLoop=1;jettySize=auto;html=1;entryX=1;entryY=0.5;entryDx=0;entryDy=0;endArrow=block;startFill=0;startArrow=none;endFill=0;" parent="1" source="hv0AoRBi-UAkbsu-fc5E-39" target="hv0AoRBi-UAkbsu-fc5E-18" edge="1">
          <mxGeometry relative="1" as="geometry" />
        </mxCell>
        <mxCell id="hv0AoRBi-UAkbsu-fc5E-39" value="&lt;span style=&quot;font-size: 14px;&quot;&gt;Checkers&lt;/span&gt;" style="ellipse;whiteSpace=wrap;html=1;" parent="1" vertex="1">
          <mxGeometry x="730" y="85" width="110" height="70" as="geometry" />
        </mxCell>
        <mxCell id="hv0AoRBi-UAkbsu-fc5E-47" value="" style="endArrow=none;html=1;rounded=0;entryX=0.093;entryY=0.808;entryDx=0;entryDy=0;startFill=0;startArrow=block;exitX=1;exitY=0;exitDx=0;exitDy=0;entryPerimeter=0;" parent="1" target="hv0AoRBi-UAkbsu-fc5E-38" edge="1">
          <mxGeometry width="50" height="50" relative="1" as="geometry">
            <mxPoint x="587.7808729652683" y="95.25126265846552" as="sourcePoint" />
            <mxPoint x="659.9991270347401" y="9.99873734152925" as="targetPoint" />
          </mxGeometry>
        </mxCell>
        <mxCell id="hv0AoRBi-UAkbsu-fc5E-58" value="Credentials Database" style="shape=umlActor;verticalLabelPosition=bottom;verticalAlign=top;html=1;outlineConnect=0;" parent="1" vertex="1">
          <mxGeometry x="270" y="-254" width="40" height="75" as="geometry" />
        </mxCell>
        <mxCell id="hv0AoRBi-UAkbsu-fc5E-59" style="edgeStyle=orthogonalEdgeStyle;rounded=0;orthogonalLoop=1;jettySize=auto;html=1;exitX=1;exitY=0;exitDx=0;exitDy=0;endArrow=none;startFill=0;" parent="1" source="hv0AoRBi-UAkbsu-fc5E-4" edge="1">
          <mxGeometry relative="1" as="geometry">
            <mxPoint x="300" y="-160" as="targetPoint" />
            <Array as="points">
              <mxPoint x="300" y="240" />
              <mxPoint x="300" y="-150" />
            </Array>
          </mxGeometry>
        </mxCell>
        <mxCell id="hv0AoRBi-UAkbsu-fc5E-60" value="&lt;span style=&quot;font-size: 14px;&quot;&gt;Change Username&lt;/span&gt;" style="ellipse;whiteSpace=wrap;html=1;" parent="1" vertex="1">
          <mxGeometry x="740" y="400" width="110" height="70" as="geometry" />
        </mxCell>
        <mxCell id="1UMPwWOg4Kr4Hqtccibb-7" value="&amp;lt;&amp;lt;extends&amp;gt;&amp;gt;" style="html=1;verticalAlign=bottom;endArrow=open;dashed=1;endSize=8;curved=0;rounded=0;exitX=0.01;exitY=0.639;exitDx=0;exitDy=0;entryX=1;entryY=0;entryDx=0;entryDy=0;exitPerimeter=0;" parent="1" source="hv0AoRBi-UAkbsu-fc5E-60" target="hv0AoRBi-UAkbsu-fc5E-21" edge="1">
          <mxGeometry x="-0.1077" y="5" relative="1" as="geometry">
            <mxPoint x="740.0000000000066" y="435" as="sourcePoint" />
            <mxPoint x="580" y="480" as="targetPoint" />
            <mxPoint as="offset" />
          </mxGeometry>
        </mxCell>
        <mxCell id="1UMPwWOg4Kr4Hqtccibb-8" value="&lt;span style=&quot;font-size: 14px;&quot;&gt;Change Password&lt;/span&gt;" style="ellipse;whiteSpace=wrap;html=1;" parent="1" vertex="1">
          <mxGeometry x="740" y="480" width="110" height="70" as="geometry" />
        </mxCell>
        <mxCell id="1UMPwWOg4Kr4Hqtccibb-9" value="&lt;span style=&quot;font-size: 14px;&quot;&gt;Change Email&lt;/span&gt;" style="ellipse;whiteSpace=wrap;html=1;" parent="1" vertex="1">
          <mxGeometry x="740" y="560" width="110" height="70" as="geometry" />
        </mxCell>
        <mxCell id="1UMPwWOg4Kr4Hqtccibb-10" value="&lt;span style=&quot;font-size: 14px;&quot;&gt;Logout&lt;/span&gt;" style="ellipse;whiteSpace=wrap;html=1;" parent="1" vertex="1">
          <mxGeometry x="740" y="640" width="110" height="70" as="geometry" />
        </mxCell>
        <mxCell id="1UMPwWOg4Kr4Hqtccibb-13" value="&amp;lt;&amp;lt;extends&amp;gt;&amp;gt;" style="html=1;verticalAlign=bottom;endArrow=open;dashed=1;endSize=8;curved=0;rounded=0;exitX=-0.015;exitY=0.567;exitDx=0;exitDy=0;entryX=0.985;entryY=0.313;entryDx=0;entryDy=0;exitPerimeter=0;entryPerimeter=0;" parent="1" source="1UMPwWOg4Kr4Hqtccibb-8" target="hv0AoRBi-UAkbsu-fc5E-21" edge="1">
          <mxGeometry x="-0.1077" y="5" relative="1" as="geometry">
            <mxPoint x="756" y="459" as="sourcePoint" />
            <mxPoint x="600" y="560" as="targetPoint" />
            <mxPoint as="offset" />
          </mxGeometry>
        </mxCell>
        <mxCell id="1UMPwWOg4Kr4Hqtccibb-14" value="&amp;lt;&amp;lt;extends&amp;gt;&amp;gt;" style="html=1;verticalAlign=bottom;endArrow=open;dashed=1;endSize=8;curved=0;rounded=0;exitX=0;exitY=0.5;exitDx=0;exitDy=0;entryX=0.98;entryY=0.644;entryDx=0;entryDy=0;entryPerimeter=0;" parent="1" source="1UMPwWOg4Kr4Hqtccibb-9" target="hv0AoRBi-UAkbsu-fc5E-21" edge="1">
          <mxGeometry x="-0.1077" y="5" relative="1" as="geometry">
            <mxPoint x="730" y="544" as="sourcePoint" />
            <mxPoint x="592" y="584" as="targetPoint" />
            <mxPoint as="offset" />
          </mxGeometry>
        </mxCell>
        <mxCell id="1UMPwWOg4Kr4Hqtccibb-15" value="&amp;lt;&amp;lt;extends&amp;gt;&amp;gt;" style="html=1;verticalAlign=bottom;endArrow=open;dashed=1;endSize=8;curved=0;rounded=0;exitX=0;exitY=0.5;exitDx=0;exitDy=0;entryX=1;entryY=1;entryDx=0;entryDy=0;" parent="1" source="1UMPwWOg4Kr4Hqtccibb-10" target="hv0AoRBi-UAkbsu-fc5E-21" edge="1">
          <mxGeometry x="-0.1077" y="5" relative="1" as="geometry">
            <mxPoint x="740" y="670" as="sourcePoint" />
            <mxPoint x="584" y="771" as="targetPoint" />
            <mxPoint as="offset" />
          </mxGeometry>
        </mxCell>
        <mxCell id="1UMPwWOg4Kr4Hqtccibb-16" value="&lt;span style=&quot;font-size: 14px;&quot;&gt;Delete Account&lt;/span&gt;" style="ellipse;whiteSpace=wrap;html=1;" parent="1" vertex="1">
          <mxGeometry x="740" y="730" width="110" height="70" as="geometry" />
        </mxCell>
        <mxCell id="1UMPwWOg4Kr4Hqtccibb-17" value="&amp;lt;&amp;lt;extends&amp;gt;&amp;gt;" style="html=1;verticalAlign=bottom;endArrow=open;dashed=1;endSize=8;curved=0;rounded=0;exitX=0.041;exitY=0.306;exitDx=0;exitDy=0;entryX=0.659;entryY=0.963;entryDx=0;entryDy=0;entryPerimeter=0;exitPerimeter=0;" parent="1" source="1UMPwWOg4Kr4Hqtccibb-16" target="hv0AoRBi-UAkbsu-fc5E-21" edge="1">
          <mxGeometry x="-0.1077" y="5" relative="1" as="geometry">
            <mxPoint x="740" y="765" as="sourcePoint" />
            <mxPoint x="584" y="680" as="targetPoint" />
            <mxPoint as="offset" />
          </mxGeometry>
        </mxCell>
        <mxCell id="RwDEto-1E7bVGoXRoFTX-5" style="edgeStyle=orthogonalEdgeStyle;rounded=0;orthogonalLoop=1;jettySize=auto;html=1;exitX=1;exitY=1;exitDx=0;exitDy=0;" parent="1" source="RwDEto-1E7bVGoXRoFTX-1" edge="1">
          <mxGeometry relative="1" as="geometry">
            <mxPoint x="222.84210526315792" y="580" as="targetPoint" />
          </mxGeometry>
        </mxCell>
        <mxCell id="RwDEto-1E7bVGoXRoFTX-1" value="&lt;font style=&quot;font-size: 14px;&quot;&gt;Enter Verification Code&amp;nbsp;&lt;/font&gt;" style="ellipse;whiteSpace=wrap;html=1;" parent="1" vertex="1">
          <mxGeometry x="120" y="540" width="120" height="73" as="geometry" />
        </mxCell>
        <mxCell id="RwDEto-1E7bVGoXRoFTX-2" value="&lt;font style=&quot;font-size: 14px;&quot;&gt;Choose a New Password&lt;/font&gt;" style="ellipse;whiteSpace=wrap;html=1;" parent="1" vertex="1">
          <mxGeometry x="115" y="390" width="120" height="73" as="geometry" />
        </mxCell>
        <mxCell id="RwDEto-1E7bVGoXRoFTX-6" style="edgeStyle=orthogonalEdgeStyle;rounded=0;orthogonalLoop=1;jettySize=auto;html=1;endArrow=none;endFill=0;dashed=1;startArrow=openThin;startFill=0;entryX=0.452;entryY=0;entryDx=0;entryDy=0;entryPerimeter=0;" parent="1" target="RwDEto-1E7bVGoXRoFTX-1" edge="1">
          <mxGeometry relative="1" as="geometry">
            <mxPoint x="174.77" y="463" as="sourcePoint" />
            <mxPoint x="174.77" y="553" as="targetPoint" />
            <Array as="points">
              <mxPoint x="175" y="503" />
              <mxPoint x="174" y="503" />
            </Array>
          </mxGeometry>
        </mxCell>
        <mxCell id="RwDEto-1E7bVGoXRoFTX-8" value="\" style="text;html=1;align=center;verticalAlign=middle;resizable=0;points=[];autosize=1;strokeColor=none;fillColor=none;" parent="1" vertex="1">
          <mxGeometry x="215" y="400" width="30" height="30" as="geometry" />
        </mxCell>
        <mxCell id="RwDEto-1E7bVGoXRoFTX-10" value="" style="rounded=0;whiteSpace=wrap;html=1;shadow=0;fillColor=light-dark(#FFFFFF,var(--ge-dark-color, #121212));strokeColor=light-dark(#F5F5F5,#FFFFFF);" parent="1" vertex="1">
          <mxGeometry x="130" y="335" width="90" height="20" as="geometry" />
        </mxCell>
        <mxCell id="hv0AoRBi-UAkbsu-fc5E-15" value="&amp;lt;&amp;lt;includes&amp;gt;&amp;gt;" style="text;html=1;align=center;verticalAlign=middle;resizable=0;points=[];autosize=1;strokeColor=none;fillColor=none;" parent="1" vertex="1">
          <mxGeometry x="125" y="330" width="100" height="30" as="geometry" />
        </mxCell>
        <mxCell id="RwDEto-1E7bVGoXRoFTX-11" value="" style="rounded=0;whiteSpace=wrap;html=1;shadow=0;fillColor=light-dark(#FFFFFF,var(--ge-dark-color, #121212));strokeColor=light-dark(#F5F5F5,#FFFFFF);" parent="1" vertex="1">
          <mxGeometry x="132" y="490" width="90" height="20" as="geometry" />
        </mxCell>
        <mxCell id="RwDEto-1E7bVGoXRoFTX-7" value="&amp;lt;&amp;lt;includes&amp;gt;&amp;gt;" style="text;html=1;align=center;verticalAlign=middle;resizable=0;points=[];autosize=1;strokeColor=none;fillColor=none;" parent="1" vertex="1">
          <mxGeometry x="130" y="484" width="100" height="30" as="geometry" />
        </mxCell>
        <mxCell id="RwDEto-1E7bVGoXRoFTX-13" style="edgeStyle=orthogonalEdgeStyle;rounded=0;orthogonalLoop=1;jettySize=auto;html=1;endArrow=none;endFill=0;dashed=1;startArrow=openThin;startFill=0;entryX=0.452;entryY=0;entryDx=0;entryDy=0;entryPerimeter=0;" parent="1" edge="1">
          <mxGeometry relative="1" as="geometry">
            <mxPoint x="175.39000000000001" y="613" as="sourcePoint" />
            <mxPoint x="174.62" y="690" as="targetPoint" />
            <Array as="points">
              <mxPoint x="175.62" y="653" />
              <mxPoint x="174.62" y="653" />
            </Array>
          </mxGeometry>
        </mxCell>
        <mxCell id="RwDEto-1E7bVGoXRoFTX-16" value="&lt;font style=&quot;font-size: 14px;&quot;&gt;Enter Verification Code&amp;nbsp;&lt;/font&gt;" style="ellipse;whiteSpace=wrap;html=1;" parent="1" vertex="1">
          <mxGeometry x="960" y="567" width="120" height="73" as="geometry" />
        </mxCell>
        <mxCell id="RwDEto-1E7bVGoXRoFTX-18" value="" style="edgeStyle=orthogonalEdgeStyle;rounded=0;orthogonalLoop=1;jettySize=auto;html=1;endArrow=openThin;endFill=0;dashed=1;entryX=0.5;entryY=0;entryDx=0;entryDy=0;exitX=0.479;exitY=0.997;exitDx=0;exitDy=0;exitPerimeter=0;" parent="1" source="hv0AoRBi-UAkbsu-fc5E-5" target="RwDEto-1E7bVGoXRoFTX-17" edge="1">
          <mxGeometry relative="1" as="geometry">
            <mxPoint x="172" y="-30" as="sourcePoint" />
            <mxPoint x="175" y="230" as="targetPoint" />
          </mxGeometry>
        </mxCell>
        <mxCell id="RwDEto-1E7bVGoXRoFTX-17" value="&lt;font style=&quot;font-size: 10px;&quot;&gt;Enter Verification Code Sent to Email to Register New Account&lt;/font&gt;" style="ellipse;whiteSpace=wrap;html=1;" parent="1" vertex="1">
          <mxGeometry x="110" y="50" width="120" height="73" as="geometry" />
        </mxCell>
        <mxCell id="RwDEto-1E7bVGoXRoFTX-22" value="" style="rounded=0;whiteSpace=wrap;html=1;shadow=0;fillColor=light-dark(#FFFFFF,var(--ge-dark-color, #121212));strokeColor=light-dark(#F5F5F5,#FFFFFF);" parent="1" vertex="1">
          <mxGeometry x="127" y="165" width="90" height="20" as="geometry" />
        </mxCell>
        <mxCell id="hv0AoRBi-UAkbsu-fc5E-12" value="&amp;lt;&amp;lt;includes&amp;gt;&amp;gt;" style="text;html=1;align=center;verticalAlign=middle;resizable=0;points=[];autosize=1;strokeColor=none;fillColor=none;" parent="1" vertex="1">
          <mxGeometry x="120" y="160" width="100" height="30" as="geometry" />
        </mxCell>
        <mxCell id="hv0AoRBi-UAkbsu-fc5E-11" value="" style="rounded=0;whiteSpace=wrap;html=1;shadow=0;fillColor=light-dark(#FFFFFF,var(--ge-dark-color, #121212));strokeColor=light-dark(#F5F5F5,#FFFFFF);" parent="1" vertex="1">
          <mxGeometry x="125" y="-10" width="90" height="20" as="geometry" />
        </mxCell>
        <mxCell id="RwDEto-1E7bVGoXRoFTX-24" value="&amp;lt;&amp;lt;includes&amp;gt;&amp;gt;" style="text;html=1;align=center;verticalAlign=middle;resizable=0;points=[];autosize=1;strokeColor=none;fillColor=none;" parent="1" vertex="1">
          <mxGeometry x="122" y="-15" width="100" height="30" as="geometry" />
        </mxCell>
        <mxCell id="RwDEto-1E7bVGoXRoFTX-27" value="" style="rounded=0;whiteSpace=wrap;html=1;shadow=0;fillColor=light-dark(#FFFFFF,var(--ge-dark-color, #121212));strokeColor=light-dark(#F5F5F5,#FFFFFF);" parent="1" vertex="1">
          <mxGeometry x="132" y="645" width="90" height="20" as="geometry" />
        </mxCell>
        <mxCell id="RwDEto-1E7bVGoXRoFTX-14" value="&amp;lt;&amp;lt;includes&amp;gt;&amp;gt;" style="text;html=1;align=center;verticalAlign=middle;resizable=0;points=[];autosize=1;strokeColor=none;fillColor=none;" parent="1" vertex="1">
          <mxGeometry x="130" y="640" width="100" height="30" as="geometry" />
        </mxCell>
        <mxCell id="RwDEto-1E7bVGoXRoFTX-28" value="" style="edgeStyle=orthogonalEdgeStyle;rounded=0;orthogonalLoop=1;jettySize=auto;html=1;endArrow=openThin;endFill=0;dashed=1;entryX=0;entryY=0.459;entryDx=0;entryDy=0;entryPerimeter=0;" parent="1" target="RwDEto-1E7bVGoXRoFTX-16" edge="1">
          <mxGeometry relative="1" as="geometry">
            <mxPoint x="850" y="600" as="sourcePoint" />
            <mxPoint x="900" y="625" as="targetPoint" />
          </mxGeometry>
        </mxCell>
        <mxCell id="RwDEto-1E7bVGoXRoFTX-29" value="" style="rounded=0;whiteSpace=wrap;html=1;shadow=0;fillColor=light-dark(#FFFFFF,var(--ge-dark-color, #121212));strokeColor=light-dark(#F5F5F5,#FFFFFF);" parent="1" vertex="1">
          <mxGeometry x="871" y="589" width="60" height="20" as="geometry" />
        </mxCell>
        <mxCell id="RwDEto-1E7bVGoXRoFTX-26" value="&lt;font style=&quot;font-size: 9px;&quot;&gt;&amp;lt;&amp;lt;includes&amp;gt;&amp;gt;&lt;/font&gt;" style="text;html=1;align=center;verticalAlign=middle;resizable=0;points=[];autosize=1;strokeColor=none;fillColor=none;" parent="1" vertex="1">
          <mxGeometry x="861" y="584" width="80" height="30" as="geometry" />
        </mxCell>
        <mxCell id="RwDEto-1E7bVGoXRoFTX-30" value="&lt;span style=&quot;font-size: 14px;&quot;&gt;Enter Password&lt;/span&gt;" style="ellipse;whiteSpace=wrap;html=1;" parent="1" vertex="1">
          <mxGeometry x="965" y="730" width="110" height="70" as="geometry" />
        </mxCell>
        <mxCell id="RwDEto-1E7bVGoXRoFTX-33" value="" style="edgeStyle=orthogonalEdgeStyle;rounded=0;orthogonalLoop=1;jettySize=auto;html=1;endArrow=openThin;endFill=0;dashed=1;entryX=0;entryY=0.459;entryDx=0;entryDy=0;entryPerimeter=0;" parent="1" edge="1">
          <mxGeometry relative="1" as="geometry">
            <mxPoint x="850" y="764.25" as="sourcePoint" />
            <mxPoint x="960" y="765.25" as="targetPoint" />
          </mxGeometry>
        </mxCell>
        <mxCell id="RwDEto-1E7bVGoXRoFTX-35" value="" style="rounded=0;whiteSpace=wrap;html=1;shadow=0;fillColor=light-dark(#FFFFFF,var(--ge-dark-color, #121212));strokeColor=light-dark(#F5F5F5,#FFFFFF);" parent="1" vertex="1">
          <mxGeometry x="871" y="753" width="60" height="20" as="geometry" />
        </mxCell>
        <mxCell id="RwDEto-1E7bVGoXRoFTX-34" value="&lt;font style=&quot;font-size: 9px;&quot;&gt;&amp;lt;&amp;lt;includes&amp;gt;&amp;gt;&lt;/font&gt;" style="text;html=1;align=center;verticalAlign=middle;resizable=0;points=[];autosize=1;strokeColor=none;fillColor=none;" parent="1" vertex="1">
          <mxGeometry x="862" y="747" width="80" height="30" as="geometry" />
        </mxCell>
        <mxCell id="rSjId-Dy7etV3kse1tsj-1" value="" style="endArrow=none;html=1;rounded=0;" parent="1" edge="1">
          <mxGeometry width="50" height="50" relative="1" as="geometry">
            <mxPoint x="230" y="80" as="sourcePoint" />
            <mxPoint x="270" y="-160" as="targetPoint" />
            <Array as="points">
              <mxPoint x="270" y="80" />
            </Array>
          </mxGeometry>
        </mxCell>
        <mxCell id="rSjId-Dy7etV3kse1tsj-4" value="Email Service Provider" style="shape=umlActor;verticalLabelPosition=bottom;verticalAlign=top;html=1;outlineConnect=0;" parent="1" vertex="1">
          <mxGeometry x="140" y="-254" width="40" height="75" as="geometry" />
        </mxCell>
        <mxCell id="rSjId-Dy7etV3kse1tsj-5" value="" style="endArrow=none;html=1;rounded=0;" parent="1" edge="1">
          <mxGeometry width="50" height="50" relative="1" as="geometry">
            <mxPoint x="160" y="-100" as="sourcePoint" />
            <mxPoint x="160" y="-150" as="targetPoint" />
          </mxGeometry>
        </mxCell>
        <mxCell id="VBX6fEAYdCznubejF_DD-1" value="" style="endArrow=none;html=1;rounded=0;" parent="1" edge="1">
          <mxGeometry width="50" height="50" relative="1" as="geometry">
            <mxPoint x="214" y="-88" as="sourcePoint" />
            <mxPoint x="257" y="-158" as="targetPoint" />
          </mxGeometry>
        </mxCell>
      </root>
    </mxGraphModel>
  </diagram>
</mxfile>
